<?xml version="1.0" encoding="utf-8"?>
<!-- Generator: Adobe Illustrator 26.0.1, SVG Export Plug-In . SVG Version: 6.00 Build 0)  -->
<svg version="1.1" id="Livello_1" xmlns="http://www.w3.org/2000/svg" xmlns:xlink="http://www.w3.org/1999/xlink" x="0px" y="0px"
	 viewBox="0 0 779.6 340.2" style="enable-background:new 0 0 779.6 340.2;" xml:space="preserve">
<style type="text/css">
	.st0{enable-background:new    ;}
	.st1{clip-path:url(#SVGID_00000089545845240270369520000005321878162869207446_);}
	.st2{clip-path:url(#SVGID_00000036247283587485832090000000254191741279553174_);fill:#5CC4EE;}
	.st3{clip-path:url(#SVGID_00000036247283587485832090000000254191741279553174_);fill:#3E8ED9;}
	
		.st4{clip-path:url(#SVGID_00000036247283587485832090000000254191741279553174_);fill:none;stroke:#000000;stroke-linecap:round;stroke-linejoin:round;stroke-miterlimit:10;stroke-dasharray:8,8;}
	.st5{clip-path:url(#SVGID_00000036247283587485832090000000254191741279553174_);fill:#0B5092;}
	.st6{clip-path:url(#SVGID_00000065065776547982629380000001681464048539795367_);}
	
		.st7{clip-path:url(#SVGID_00000017480026855944285760000008904011429418075543_);fill:none;stroke:#000000;stroke-width:5;stroke-linecap:round;stroke-linejoin:round;stroke-miterlimit:10;}
	
		.st8{clip-path:url(#SVGID_00000147182142713338267310000013224988828707458984_);fill:none;stroke:#585A5A;stroke-width:3;stroke-linecap:round;stroke-linejoin:round;stroke-miterlimit:10;stroke-dasharray:8,8;}
	.st9{clip-path:url(#SVGID_00000147182142713338267310000013224988828707458984_);fill:#AF7027;}
	
		.st10{clip-path:url(#SVGID_00000147182142713338267310000013224988828707458984_);fill:none;stroke:#000000;stroke-width:3;stroke-linecap:round;stroke-miterlimit:10;}
	
		.st11{clip-path:url(#SVGID_00000147182142713338267310000013224988828707458984_);fill:none;stroke:#000000;stroke-width:3;stroke-linecap:round;stroke-linejoin:round;stroke-miterlimit:10;}
	
		.st12{clip-path:url(#SVGID_00000075869719847885277440000006040959414176329608_);fill:none;stroke:#000000;stroke-width:21.5;stroke-linecap:round;stroke-linejoin:round;stroke-miterlimit:10;}
	.st13{clip-path:url(#SVGID_00000011753942915856243150000005042916260467951549_);}
	
		.st14{clip-path:url(#SVGID_00000007409680804837258680000016563937081486580647_);fill:none;stroke:#000000;stroke-width:21.5;stroke-linecap:round;stroke-linejoin:round;stroke-miterlimit:10;}
	
		.st15{clip-path:url(#SVGID_00000155145368438278236240000009186104705372940160_);fill:none;stroke:#000000;stroke-width:21.5;stroke-linecap:round;stroke-linejoin:round;stroke-miterlimit:10;}
	
		.st16{clip-path:url(#SVGID_00000006691453059126547450000012435926028773469087_);fill:none;stroke:#000000;stroke-width:21;stroke-linecap:round;stroke-linejoin:round;stroke-miterlimit:10;}
	.st17{clip-path:url(#SVGID_00000156587956124002981310000008308904906111024521_);}
</style>
<g class="st0">
	<g>
		<defs>
			<rect id="SVGID_1_" x="-11" y="-20.8" width="801" height="367"/>
		</defs>
		<clipPath id="SVGID_00000050664083776122353100000009089182228248229808_">
			<use xlink:href="#SVGID_1_"  style="overflow:visible;"/>
		</clipPath>
		<g style="clip-path:url(#SVGID_00000050664083776122353100000009089182228248229808_);">
			<defs>
				<rect id="SVGID_00000178883582780456414900000010109645927267335606_" width="779.6" height="340.2"/>
			</defs>
			<clipPath id="SVGID_00000011736344551343893850000011483230970459588005_">
				<use xlink:href="#SVGID_00000178883582780456414900000010109645927267335606_"  style="overflow:visible;"/>
			</clipPath>
			<path style="clip-path:url(#SVGID_00000011736344551343893850000011483230970459588005_);fill:#5CC4EE;" d="M332.6,147.4
				c3.8,60.5,50.4,109.1,109.9,109.1c59.5,0,106.2-48.9,110-109.4L332.6,147.4z"/>
			<path style="clip-path:url(#SVGID_00000011736344551343893850000011483230970459588005_);fill:#3E8ED9;" d="M551.8,172.2
				c7.2-2.9-16.1-4-23.2-0.9c-13.2,5.7-18.6,22.9-32.7,26.1c-55.6,12.8-74.2-30.7-114.6,19.8c-4.4,5.5-14,8.9-11.8,17.7
				c1.6,6.5,14.4,8.4,19.1,11.4c46.4,29,108.5,5.9,144.4-30C544,205.2,544.8,175.1,551.8,172.2z"/>
			
				<path style="clip-path:url(#SVGID_00000011736344551343893850000011483230970459588005_);fill:none;stroke:#000000;stroke-linecap:round;stroke-linejoin:round;stroke-miterlimit:10;stroke-dasharray:8,8;" d="
				M551.8,172.2c7.2-2.9-16.1-4-23.2-0.9c-13.2,5.7-18.6,22.9-32.7,26.1c-55.6,12.8-74.2-30.7-114.6,19.8c-4.4,5.5-14,8.9-11.8,17.7
				c1.6,6.5,14.4,8.4,19.1,11.4c46.4,29,108.5,5.9,144.4-30C544,205.2,544.8,175.1,551.8,172.2z"/>
			<path style="clip-path:url(#SVGID_00000011736344551343893850000011483230970459588005_);fill:#0B5092;" d="M533.6,208.8
				c0.2,0.8,1.1-0.1,0.5-0.9c-5.2-6.5-22.5-6.4-29.8-4.8c-18.4,4.1-44.8,19.2-33.4,41.8c9.7,19.4,42.1-2.3,50.5-10.7
				c4.7-4.7,8.7-10,11.6-15.9C534.3,215.5,532.9,205.7,533.6,208.8z"/>
			
				<path style="clip-path:url(#SVGID_00000011736344551343893850000011483230970459588005_);fill:none;stroke:#000000;stroke-linecap:round;stroke-linejoin:round;stroke-miterlimit:10;stroke-dasharray:8,8;" d="
				M533.6,208.8c0.2,0.8,1.1-0.1,0.5-0.9c-5.2-6.5-22.5-6.4-29.8-4.8c-18.4,4.1-44.8,19.2-33.4,41.8c9.7,19.4,42.1-2.3,50.5-10.7
				c4.7-4.7,8.7-10,11.6-15.9C534.3,215.5,532.9,205.7,533.6,208.8z"/>
		</g>
		<g style="clip-path:url(#SVGID_00000050664083776122353100000009089182228248229808_);">
			<defs>
				<rect id="SVGID_00000080918258741874516120000008964814468568881552_" x="304" y="16.2" width="278" height="278"/>
			</defs>
			<clipPath id="SVGID_00000163037164604042909770000013313012634489773226_">
				<use xlink:href="#SVGID_00000080918258741874516120000008964814468568881552_"  style="overflow:visible;"/>
			</clipPath>
			<g style="clip-path:url(#SVGID_00000163037164604042909770000013313012634489773226_);">
				
					<image style="overflow:visible;" width="278" height="278" xlink:href="5E9CE0D57D3D7542.png"  transform="matrix(1 0 0 1 304 16.2)">
				</image>
			</g>
		</g>
		<g style="clip-path:url(#SVGID_00000050664083776122353100000009089182228248229808_);">
			<defs>
				<rect id="SVGID_00000057115028395719540250000003585030696976915084_" width="779.6" height="340.2"/>
			</defs>
			<clipPath id="SVGID_00000133496891180406097940000002101142880714685088_">
				<use xlink:href="#SVGID_00000057115028395719540250000003585030696976915084_"  style="overflow:visible;"/>
			</clipPath>
			<path style="clip-path:url(#SVGID_00000133496891180406097940000002101142880714685088_);" d="M443.1,37.3
				c59.3,0,107.5,48.2,107.5,107.5c0,59.3-48.1,107.4-107.5,107.4c-59.3,0-107.4-48.1-107.4-107.4C335.7,85.5,383.8,37.3,443.1,37.3
				z M443.1,17.2c-70.5,0-127.6,57.1-127.6,127.6c0,70.5,57.1,127.6,127.6,127.6c70.5,0,127.6-57.1,127.6-127.6
				S513.6,17.2,443.1,17.2z"/>
		</g>
		<g style="clip-path:url(#SVGID_00000050664083776122353100000009089182228248229808_);">
			<defs>
				<rect id="SVGID_00000160906255551372086400000012484601282229857665_" x="318" y="141.2" width="250" height="28"/>
			</defs>
			<clipPath id="SVGID_00000034802865804649420450000006979957507571645109_">
				<use xlink:href="#SVGID_00000160906255551372086400000012484601282229857665_"  style="overflow:visible;"/>
			</clipPath>
			<g style="clip-path:url(#SVGID_00000034802865804649420450000006979957507571645109_);">
				
					<image style="overflow:visible;" width="250" height="28" xlink:href="5E9CE0D57D3D7546.png"  transform="matrix(1 0 0 1 318 141.2)">
				</image>
			</g>
		</g>
		<g style="clip-path:url(#SVGID_00000050664083776122353100000009089182228248229808_);">
			<defs>
				<rect id="SVGID_00000000207653930005656860000011443255959365640637_" width="779.6" height="340.2"/>
			</defs>
			<clipPath id="SVGID_00000130620107684693137750000015238442815640945583_">
				<use xlink:href="#SVGID_00000000207653930005656860000011443255959365640637_"  style="overflow:visible;"/>
			</clipPath>
			
				<line style="clip-path:url(#SVGID_00000130620107684693137750000015238442815640945583_);fill:none;stroke:#000000;stroke-width:5;stroke-linecap:round;stroke-linejoin:round;stroke-miterlimit:10;" x1="332.2" y1="144.9" x2="554" y2="144.8"/>
		</g>
		<g style="clip-path:url(#SVGID_00000050664083776122353100000009089182228248229808_);">
			<defs>
				<rect id="SVGID_00000034783805765762221220000010673882162093930909_" width="779.6" height="340.2"/>
			</defs>
			<clipPath id="SVGID_00000076584889746439121030000002800483392146577568_">
				<use xlink:href="#SVGID_00000034783805765762221220000010673882162093930909_"  style="overflow:visible;"/>
			</clipPath>
			
				<path style="clip-path:url(#SVGID_00000076584889746439121030000002800483392146577568_);fill:none;stroke:#585A5A;stroke-width:3;stroke-linecap:round;stroke-linejoin:round;stroke-miterlimit:10;stroke-dasharray:8,8;" d="
				M377.4,184.8c-17.5,19.3-49.1,42.1-73.7,50.9"/>
			
				<path style="clip-path:url(#SVGID_00000076584889746439121030000002800483392146577568_);fill:none;stroke:#585A5A;stroke-width:3;stroke-linecap:round;stroke-linejoin:round;stroke-miterlimit:10;stroke-dasharray:8,8;" d="
				M598.2,276.3c7.8-3.9,16.5-29.1,16.5-37"/>
			
				<path style="clip-path:url(#SVGID_00000076584889746439121030000002800483392146577568_);fill:none;stroke:#585A5A;stroke-width:3;stroke-linecap:round;stroke-linejoin:round;stroke-miterlimit:10;stroke-dasharray:8,8;" d="
				M175.9,42.8c0,23.4,13,47.4,13,72"/>
			<polygon style="clip-path:url(#SVGID_00000076584889746439121030000002800483392146577568_);fill:#AF7027;" points="362.5,144.1 
				406.7,77.9 436.2,111.2 480.4,60.7 532.8,143.2 			"/>
			
				<polygon style="clip-path:url(#SVGID_00000076584889746439121030000002800483392146577568_);fill:none;stroke:#000000;stroke-width:3;stroke-linecap:round;stroke-miterlimit:10;" points="
				362.5,144.1 406.7,77.9 436.2,111.2 480.4,60.7 532.8,143.2 			"/>
			
				<line style="clip-path:url(#SVGID_00000076584889746439121030000002800483392146577568_);fill:none;stroke:#000000;stroke-width:3;stroke-linecap:round;stroke-linejoin:round;stroke-miterlimit:10;" x1="435.9" y1="110.9" x2="444.4" y2="120.5"/>
		</g>
		<g style="clip-path:url(#SVGID_00000050664083776122353100000009089182228248229808_);">
			<defs>
				<rect id="SVGID_00000023992441523467142090000007715961573175300014_" y="11.2" width="201" height="287"/>
			</defs>
			<clipPath id="SVGID_00000109743643277409051540000003149852577559445644_">
				<use xlink:href="#SVGID_00000023992441523467142090000007715961573175300014_"  style="overflow:visible;"/>
			</clipPath>
			<g style="clip-path:url(#SVGID_00000109743643277409051540000003149852577559445644_);">
				
					<image style="overflow:visible;" width="201" height="287" xlink:href="5E9CE0D57D3D7541.png"  transform="matrix(1 0 0 1 0 11.2)">
				</image>
			</g>
		</g>
		<g style="clip-path:url(#SVGID_00000050664083776122353100000009089182228248229808_);">
			<defs>
				<rect id="SVGID_00000125604748314078766240000005483523209904258480_" width="779.6" height="340.2"/>
			</defs>
			<clipPath id="SVGID_00000170248745148555858790000014393484626340743824_">
				<use xlink:href="#SVGID_00000125604748314078766240000005483523209904258480_"  style="overflow:visible;"/>
			</clipPath>
			
				<path style="clip-path:url(#SVGID_00000170248745148555858790000014393484626340743824_);fill:none;stroke:#000000;stroke-width:21.5;stroke-linecap:round;stroke-linejoin:round;stroke-miterlimit:10;" d="
				M22.4,62.6c0,0,19,137.9,36.3,183.8c17.4,46,29.5-4.6,29.5-4.6s40.1-170.1,59.4-206.5c19.2-36.4,31.5,23.6,31.5,23.6"/>
		</g>
		<g style="clip-path:url(#SVGID_00000050664083776122353100000009089182228248229808_);">
			<defs>
				<rect id="SVGID_00000143579236907525464970000000119315528544080795_" y="33.2" width="58" height="67"/>
			</defs>
			<clipPath id="SVGID_00000073687848394569596410000012127405488217035957_">
				<use xlink:href="#SVGID_00000143579236907525464970000000119315528544080795_"  style="overflow:visible;"/>
			</clipPath>
			<g style="clip-path:url(#SVGID_00000073687848394569596410000012127405488217035957_);">
				
					<image style="overflow:visible;" width="58" height="67" xlink:href="5E9CE0D57D3D7543.png"  transform="matrix(1 0 0 1 0 33.2)">
				</image>
			</g>
		</g>
		<g style="clip-path:url(#SVGID_00000050664083776122353100000009089182228248229808_);">
			<defs>
				<rect id="SVGID_00000088830847215207975210000005138225885284022412_" width="779.6" height="340.2"/>
			</defs>
			<clipPath id="SVGID_00000070803230785964665560000009738524340121832889_">
				<use xlink:href="#SVGID_00000088830847215207975210000005138225885284022412_"  style="overflow:visible;"/>
			</clipPath>
			
				<ellipse style="clip-path:url(#SVGID_00000070803230785964665560000009738524340121832889_);" cx="23.1" cy="56.8" rx="23.1" ry="22.4"/>
		</g>
		<g style="clip-path:url(#SVGID_00000050664083776122353100000009089182228248229808_);">
			<defs>
				<rect id="SVGID_00000073696830520041454520000010620041593172425615_" x="163" y="78.2" width="174" height="212"/>
			</defs>
			<clipPath id="SVGID_00000038390271110153702690000007226446284144416701_">
				<use xlink:href="#SVGID_00000073696830520041454520000010620041593172425615_"  style="overflow:visible;"/>
			</clipPath>
			<g style="clip-path:url(#SVGID_00000038390271110153702690000007226446284144416701_);">
				
					<image style="overflow:visible;" width="174" height="212" xlink:href="5E9CE0D57D3D7540.png"  transform="matrix(1 0 0 1 163 78.2)">
				</image>
			</g>
		</g>
		<g style="clip-path:url(#SVGID_00000050664083776122353100000009089182228248229808_);">
			<defs>
				<rect id="SVGID_00000095305411383283700480000007574257690117542309_" width="779.6" height="340.2"/>
			</defs>
			<clipPath id="SVGID_00000168091113944866855460000002373305577709860784_">
				<use xlink:href="#SVGID_00000095305411383283700480000007574257690117542309_"  style="overflow:visible;"/>
			</clipPath>
			
				<path style="clip-path:url(#SVGID_00000168091113944866855460000002373305577709860784_);fill:none;stroke:#000000;stroke-width:21.5;stroke-linecap:round;stroke-linejoin:round;stroke-miterlimit:10;" d="
				M184.8,90.4c0,0,5.6,117.7,25.7,154.3S314.4,230,314.4,230"/>
		</g>
		<g style="clip-path:url(#SVGID_00000050664083776122353100000009089182228248229808_);">
			<defs>
				<rect id="SVGID_00000124148396149398183130000002280567019642349981_" x="583" y="24.2" width="192" height="255"/>
			</defs>
			<clipPath id="SVGID_00000018946410467269797980000005294962020319634565_">
				<use xlink:href="#SVGID_00000124148396149398183130000002280567019642349981_"  style="overflow:visible;"/>
			</clipPath>
			<g style="clip-path:url(#SVGID_00000018946410467269797980000005294962020319634565_);">
				
					<image style="overflow:visible;" width="192" height="255" xlink:href="5E9CE0D57D3D754E.png"  transform="matrix(1 0 0 1 583 24.2)">
				</image>
			</g>
		</g>
		<g style="clip-path:url(#SVGID_00000050664083776122353100000009089182228248229808_);">
			<defs>
				<rect id="SVGID_00000065769633488014002280000013496807818199735484_" width="779.6" height="340.2"/>
			</defs>
			<clipPath id="SVGID_00000147188434051600207300000013268250362656999609_">
				<use xlink:href="#SVGID_00000065769633488014002280000013496807818199735484_"  style="overflow:visible;"/>
			</clipPath>
			
				<path style="clip-path:url(#SVGID_00000147188434051600207300000013268250362656999609_);fill:none;stroke:#000000;stroke-width:21.5;stroke-linecap:round;stroke-linejoin:round;stroke-miterlimit:10;" d="
				M613.1,246.7c0,0-17.8-181.7-1.2-207.3c16.6-25.6,34.5,105,67.7,105c33.3,0,49-129.3,65.3-105c16.3,24.3,0,202.2,0,202.2"/>
		</g>
		<g style="clip-path:url(#SVGID_00000050664083776122353100000009089182228248229808_);">
			<defs>
				<rect id="SVGID_00000034070630477794205360000001043415557557983361_" x="350" y="150.2" width="269" height="178"/>
			</defs>
			<clipPath id="SVGID_00000026884067373752173160000005009025129605130130_">
				<use xlink:href="#SVGID_00000034070630477794205360000001043415557557983361_"  style="overflow:visible;"/>
			</clipPath>
			<g style="clip-path:url(#SVGID_00000026884067373752173160000005009025129605130130_);">
				
					<image style="overflow:visible;" width="269" height="178" xlink:href="5E9CE0D57D3D7545.png"  transform="matrix(1 0 0 1 350 150.2)">
				</image>
			</g>
		</g>
		<g style="clip-path:url(#SVGID_00000050664083776122353100000009089182228248229808_);">
			<defs>
				<rect id="SVGID_00000041979867135659030700000011131065713009809812_" width="779.6" height="340.2"/>
			</defs>
			<clipPath id="SVGID_00000092437051461041502230000009227237799770104204_">
				<use xlink:href="#SVGID_00000041979867135659030700000011131065713009809812_"  style="overflow:visible;"/>
			</clipPath>
			
				<path style="clip-path:url(#SVGID_00000092437051461041502230000009227237799770104204_);fill:none;stroke:#000000;stroke-width:21;stroke-linecap:round;stroke-linejoin:round;stroke-miterlimit:10;" d="
				M371.9,186.4c16.8-15.1,28.9-29.9,52.3-21.9c16.5,5.7,35.3,29.4,46.7,44.9c21.7,29.5,38.7,74.4,67.6,83.8
				c33.1,10.9,51.5-10.4,58.5-18"/>
		</g>
		<g style="clip-path:url(#SVGID_00000050664083776122353100000009089182228248229808_);">
			<defs>
				<rect id="SVGID_00000065795121280978011490000007376474621547821958_" x="706" y="233.2" width="74" height="72"/>
			</defs>
			<clipPath id="SVGID_00000100369024879629960530000010472568356719260856_">
				<use xlink:href="#SVGID_00000065795121280978011490000007376474621547821958_"  style="overflow:visible;"/>
			</clipPath>
			<g style="clip-path:url(#SVGID_00000100369024879629960530000010472568356719260856_);">
				
					<image style="overflow:visible;" width="74" height="72" xlink:href="5E9CE0D57D3D7547.png"  transform="matrix(1 0 0 1 706 233.2)">
				</image>
			</g>
		</g>
		<g style="clip-path:url(#SVGID_00000050664083776122353100000009089182228248229808_);">
			<defs>
				<rect id="SVGID_00000162343403939633359350000003015071399892248989_" width="779.6" height="340.2"/>
			</defs>
			<clipPath id="SVGID_00000128467646495698958300000013285060341414505122_">
				<use xlink:href="#SVGID_00000162343403939633359350000003015071399892248989_"  style="overflow:visible;"/>
			</clipPath>
			<path style="clip-path:url(#SVGID_00000128467646495698958300000013285060341414505122_);" d="M771.2,248.4l-26.5,32.6
				c-2.9,3.6-6.9,3.1-8.8-1.1l-17.5-38.2c-1.9-4.2,0.4-7.2,5.3-6.5l44,5.7C772.6,241.3,774.2,244.8,771.2,248.4z"/>
		</g>
	</g>
</g>
</svg>
