<?xml version="1.0" encoding="utf-8"?>
<!-- Generator: Adobe Illustrator 26.0.1, SVG Export Plug-In . SVG Version: 6.00 Build 0)  -->
<svg version="1.1" id="Livello_1" xmlns="http://www.w3.org/2000/svg" xmlns:xlink="http://www.w3.org/1999/xlink" x="0px" y="0px"
	 viewBox="0 0 348.7 362.9" style="enable-background:new 0 0 348.7 362.9;" xml:space="preserve">
<style type="text/css">
	.st0{enable-background:new    ;}
	.st1{clip-path:url(#SVGID_00000073689082681792363980000017482111010599904175_);}
	.st2{clip-path:url(#SVGID_00000048479976236647728540000001312613285245799809_);fill:#5CC4EE;}
	.st3{clip-path:url(#SVGID_00000048479976236647728540000001312613285245799809_);fill:#3E8ED9;}
	
		.st4{clip-path:url(#SVGID_00000048479976236647728540000001312613285245799809_);fill:none;stroke:#000000;stroke-linecap:round;stroke-linejoin:round;stroke-miterlimit:10;stroke-dasharray:8,8;}
	.st5{clip-path:url(#SVGID_00000048479976236647728540000001312613285245799809_);fill:#0B5092;}
	.st6{clip-path:url(#SVGID_00000141429806082705281910000006399657373682725538_);}
	
		.st7{clip-path:url(#SVGID_00000147194392754709773640000010965575327379206032_);fill:none;stroke:#000000;stroke-width:5;stroke-linecap:round;stroke-linejoin:round;stroke-miterlimit:10;}
	.st8{clip-path:url(#SVGID_00000137821083434328899830000009298794934837968798_);fill:#AF7027;}
	
		.st9{clip-path:url(#SVGID_00000137821083434328899830000009298794934837968798_);fill:none;stroke:#000000;stroke-width:3;stroke-linecap:round;stroke-miterlimit:10;}
	
		.st10{clip-path:url(#SVGID_00000137821083434328899830000009298794934837968798_);fill:none;stroke:#000000;stroke-width:3;stroke-linecap:round;stroke-linejoin:round;stroke-miterlimit:10;}
	.st11{clip-path:url(#SVGID_00000021085272246334637910000008201825066334888344_);}
	
		.st12{clip-path:url(#SVGID_00000109728430321012043640000014219790396618081968_);fill:none;stroke:#000000;stroke-width:18;stroke-linecap:round;stroke-linejoin:round;stroke-miterlimit:10;}
	.st13{clip-path:url(#SVGID_00000045582982823723911980000013285837477570624154_);}
</style>
<g class="st0">
	<g>
		<defs>
			<rect id="SVGID_1_" x="-11" y="-21.1" width="370" height="405"/>
		</defs>
		<clipPath id="SVGID_00000131364347067860135560000016386159258416933038_">
			<use xlink:href="#SVGID_1_"  style="overflow:visible;"/>
		</clipPath>
		<g style="clip-path:url(#SVGID_00000131364347067860135560000016386159258416933038_);">
			<defs>
				<rect id="SVGID_00000070105105542865327700000005494056050088722602_" width="348.7" height="362.9"/>
			</defs>
			<clipPath id="SVGID_00000017486902273397205630000009900923086110523559_">
				<use xlink:href="#SVGID_00000070105105542865327700000005494056050088722602_"  style="overflow:visible;"/>
			</clipPath>
			<path style="clip-path:url(#SVGID_00000017486902273397205630000009900923086110523559_);fill:#5CC4EE;" d="M9.8,166.3
				c5.4,87.1,72.6,157.2,158.4,157.2S321.3,253,326.7,165.9L9.8,166.3z"/>
			<path style="clip-path:url(#SVGID_00000017486902273397205630000009900923086110523559_);fill:#3E8ED9;" d="M329.8,177.4
				c10.7-4.9-24.1-6.7-34.7-1.5c-19.7,9.5-27.9,38.6-49,44c-83.2,21.6-111.1-51.7-171.5,33.3c-6.6,9.2-21,15-17.7,29.9
				c2.4,10.9,21.6,14.2,28.6,19.1c69.5,48.9,162.4,9.9,216.1-50.6C318.1,233,319.3,182.2,329.8,177.4z"/>
			
				<path style="clip-path:url(#SVGID_00000017486902273397205630000009900923086110523559_);fill:none;stroke:#000000;stroke-linecap:round;stroke-linejoin:round;stroke-miterlimit:10;stroke-dasharray:8,8;" d="
				M329.8,177.4c10.7-4.9-24.1-6.7-34.7-1.5c-19.7,9.5-27.9,38.6-49,44c-83.2,21.6-111.1-51.7-171.5,33.3c-6.6,9.2-21,15-17.7,29.9
				c2.4,10.9,21.6,14.2,28.6,19.1c69.5,48.9,162.4,9.9,216.1-50.6C318.1,233,319.3,182.2,329.8,177.4z"/>
			<path style="clip-path:url(#SVGID_00000017486902273397205630000009900923086110523559_);fill:#0B5092;" d="M293.9,254.6
				c0.1,1.4,1.9,0,1-1.4c-6.7-11.6-35.9-14.5-48.6-13c-32.2,3.6-81.2,24.2-69.2,63.7c10.3,33.9,71.6,3.3,88.2-9.1
				c9.4-7,17.7-15.2,24.4-24.4C293,265.8,293.6,249.3,293.9,254.6z"/>
			
				<path style="clip-path:url(#SVGID_00000017486902273397205630000009900923086110523559_);fill:none;stroke:#000000;stroke-linecap:round;stroke-linejoin:round;stroke-miterlimit:10;stroke-dasharray:8,8;" d="
				M293.9,254.6c0.1,1.4,1.9,0,1-1.4c-6.7-11.6-35.9-14.5-48.6-13c-32.2,3.6-81.2,24.2-69.2,63.7c10.3,33.9,71.6,3.3,88.2-9.1
				c9.4-7,17.7-15.2,24.4-24.4C293,265.8,293.6,249.3,293.9,254.6z"/>
		</g>
		<g style="clip-path:url(#SVGID_00000131364347067860135560000016386159258416933038_);">
			<defs>
				<rect id="SVGID_00000010286585876010508520000018201383194529847223_" y="-0.1" width="349" height="362"/>
			</defs>
			<clipPath id="SVGID_00000146458279515331651180000009361474548401601939_">
				<use xlink:href="#SVGID_00000010286585876010508520000018201383194529847223_"  style="overflow:visible;"/>
			</clipPath>
			<g style="clip-path:url(#SVGID_00000146458279515331651180000009361474548401601939_);">
				
					<image style="overflow:visible;" width="349" height="362" xlink:href="19FA7BEF4E14121D.png"  transform="matrix(1 0 0 1 0 -0.12)">
				</image>
			</g>
		</g>
		<g style="clip-path:url(#SVGID_00000131364347067860135560000016386159258416933038_);">
			<defs>
				<rect id="SVGID_00000103946555838782596270000010869603740698158004_" width="348.7" height="362.9"/>
			</defs>
			<clipPath id="SVGID_00000177450774124857503590000002093332655909088658_">
				<use xlink:href="#SVGID_00000103946555838782596270000010869603740698158004_"  style="overflow:visible;"/>
			</clipPath>
			<path style="clip-path:url(#SVGID_00000177450774124857503590000002093332655909088658_);" d="M170.1,24.1
				c80.6,0,146,65.4,146,146.1s-65.4,145.9-146,145.9c-80.6,0-146-65.3-146-145.9C24.1,89.5,89.5,24.1,170.1,24.1z M170.1,0
				C76.2,0,0,76.2,0,170.1c0,94,76.2,170.1,170.1,170.1c94,0,170.1-76.1,170.1-170.1C340.2,76.2,264.1,0,170.1,0z"/>
		</g>
		<g style="clip-path:url(#SVGID_00000131364347067860135560000016386159258416933038_);">
			<defs>
				<rect id="SVGID_00000001659771505895114770000018083905461055505290_" x="1" y="159.9" width="334" height="28"/>
			</defs>
			<clipPath id="SVGID_00000101086678525468058930000006322295380609034419_">
				<use xlink:href="#SVGID_00000001659771505895114770000018083905461055505290_"  style="overflow:visible;"/>
			</clipPath>
			<g style="clip-path:url(#SVGID_00000101086678525468058930000006322295380609034419_);">
				
					<image style="overflow:visible;" width="334" height="28" xlink:href="19FA7BEF4E14121F.png"  transform="matrix(1 0 0 1 1 159.88)">
				</image>
			</g>
		</g>
		<g style="clip-path:url(#SVGID_00000131364347067860135560000016386159258416933038_);">
			<defs>
				<rect id="SVGID_00000121239591599112964180000015729163482137027467_" width="348.7" height="362.9"/>
			</defs>
			<clipPath id="SVGID_00000005248508600812974200000014920472587232456361_">
				<use xlink:href="#SVGID_00000121239591599112964180000015729163482137027467_"  style="overflow:visible;"/>
			</clipPath>
			
				<line style="clip-path:url(#SVGID_00000005248508600812974200000014920472587232456361_);fill:none;stroke:#000000;stroke-width:5;stroke-linecap:round;stroke-linejoin:round;stroke-miterlimit:10;" x1="14.9" y1="164" x2="321.1" y2="163.9"/>
		</g>
		<g style="clip-path:url(#SVGID_00000131364347067860135560000016386159258416933038_);">
			<defs>
				<rect id="SVGID_00000075847863455026313240000009454931603357924781_" width="348.7" height="362.9"/>
			</defs>
			<clipPath id="SVGID_00000095340441731882688210000008939674934527904922_">
				<use xlink:href="#SVGID_00000075847863455026313240000009454931603357924781_"  style="overflow:visible;"/>
			</clipPath>
			<polygon style="clip-path:url(#SVGID_00000095340441731882688210000008939674934527904922_);fill:#AF7027;" points="55.3,163 
				114.3,74.7 153.6,119.2 212.5,51.8 282.4,161.8 			"/>
			
				<polygon style="clip-path:url(#SVGID_00000095340441731882688210000008939674934527904922_);fill:none;stroke:#000000;stroke-width:3;stroke-linecap:round;stroke-miterlimit:10;" points="
				55.3,163 114.3,74.7 153.6,119.2 212.5,51.8 282.4,161.8 			"/>
			
				<line style="clip-path:url(#SVGID_00000095340441731882688210000008939674934527904922_);fill:none;stroke:#000000;stroke-width:3;stroke-linecap:round;stroke-linejoin:round;stroke-miterlimit:10;" x1="153" y1="118.5" x2="164.3" y2="131.2"/>
		</g>
		<g style="clip-path:url(#SVGID_00000131364347067860135560000016386159258416933038_);">
			<defs>
				<rect id="SVGID_00000137110440075510431530000000666972636865672623_" x="42" y="184.9" width="63" height="63"/>
			</defs>
			<clipPath id="SVGID_00000049182088735092233840000003221356424315922818_">
				<use xlink:href="#SVGID_00000137110440075510431530000000666972636865672623_"  style="overflow:visible;"/>
			</clipPath>
			<g style="clip-path:url(#SVGID_00000049182088735092233840000003221356424315922818_);">
				
					<image style="overflow:visible;" width="63" height="63" xlink:href="19FA7BEF4E14121A.png"  transform="matrix(1 0 0 1 42 184.88)">
				</image>
			</g>
		</g>
		<g style="clip-path:url(#SVGID_00000131364347067860135560000016386159258416933038_);">
			<defs>
				<rect id="SVGID_00000018223760455412080420000014916194407428566969_" width="348.7" height="362.9"/>
			</defs>
			<clipPath id="SVGID_00000121238986595352234680000003943290610601116315_">
				<use xlink:href="#SVGID_00000018223760455412080420000014916194407428566969_"  style="overflow:visible;"/>
			</clipPath>
			<circle style="clip-path:url(#SVGID_00000121238986595352234680000003943290610601116315_);" cx="73.3" cy="206.4" r="19.8"/>
		</g>
		<g style="clip-path:url(#SVGID_00000131364347067860135560000016386159258416933038_);">
			<defs>
				<rect id="SVGID_00000033359305261506937530000011474152382613901442_" x="56" y="173.9" width="284" height="189"/>
			</defs>
			<clipPath id="SVGID_00000109726321945261241500000013975900068725765539_">
				<use xlink:href="#SVGID_00000033359305261506937530000011474152382613901442_"  style="overflow:visible;"/>
			</clipPath>
			<g style="clip-path:url(#SVGID_00000109726321945261241500000013975900068725765539_);">
				
					<image style="overflow:visible;" width="284" height="189" xlink:href="19FA7BEF4E14121B.png"  transform="matrix(1 0 0 1 56 173.88)">
				</image>
			</g>
		</g>
		<g style="clip-path:url(#SVGID_00000131364347067860135560000016386159258416933038_);">
			<defs>
				<rect id="SVGID_00000052809808397869427390000010190269403082673576_" width="348.7" height="362.9"/>
			</defs>
			<clipPath id="SVGID_00000085208645982380474690000000574350309083703453_">
				<use xlink:href="#SVGID_00000052809808397869427390000010190269403082673576_"  style="overflow:visible;"/>
			</clipPath>
			
				<path style="clip-path:url(#SVGID_00000085208645982380474690000000574350309083703453_);fill:none;stroke:#000000;stroke-width:18;stroke-linecap:round;stroke-linejoin:round;stroke-miterlimit:10;" d="
				M76.4,206.4c19.5-17.4,31.8-27.6,58.9-18.4c19.2,6.5,41,33.8,54.3,51.7c25.2,34,41.6,63.9,63.6,91.3c21.4,26.8,50.9,14.5,66-6.3"
				/>
		</g>
		<g style="clip-path:url(#SVGID_00000131364347067860135560000016386159258416933038_);">
			<defs>
				<rect id="SVGID_00000065755065317467278490000000263598257444957861_" x="286" y="285.9" width="63" height="76"/>
			</defs>
			<clipPath id="SVGID_00000179628358835902598620000001665825212633886858_">
				<use xlink:href="#SVGID_00000065755065317467278490000000263598257444957861_"  style="overflow:visible;"/>
			</clipPath>
			<g style="clip-path:url(#SVGID_00000179628358835902598620000001665825212633886858_);">
				
					<image style="overflow:visible;" width="63" height="76" xlink:href="19FA7BEF4E141225.png"  transform="matrix(1 0 0 1 286 285.88)">
				</image>
			</g>
		</g>
		<g style="clip-path:url(#SVGID_00000131364347067860135560000016386159258416933038_);">
			<defs>
				<rect id="SVGID_00000033329546627699942540000004000674431837739435_" width="348.7" height="362.9"/>
			</defs>
			<clipPath id="SVGID_00000160173523737375060520000011642845843093555096_">
				<use xlink:href="#SVGID_00000033329546627699942540000004000674431837739435_"  style="overflow:visible;"/>
			</clipPath>
			<path style="clip-path:url(#SVGID_00000160173523737375060520000011642845843093555096_);" d="M301.3,303.9l39-15.6
				c4.3-1.7,7.5,0.6,7.2,5.3l-3.2,41.9c-0.4,4.6-3.9,6.1-7.8,3.1l-35.8-26.3C296.7,309.4,297,305.7,301.3,303.9z"/>
		</g>
	</g>
</g>
</svg>
